# xmcd
#
# Track frame offsets: 
#        150
#        15315
#        28662
#        44670
#        58805
#        74005
#        91622
#        109860
#        126342
#        141352
#        155775
#        171535
#        188752
#        204877
#        220157
#        237045
#
# Disc length: 3361 seconds
#
# Revision: 0
# Processed by: cddbd v1.5.1PL2 Copyright (c) Steve Scherf et al.
# Submitted via: ExactAudioCopy v0.95b4
#
DISCID=ea0d1f10
DTITLE=รวม - เกี่ยวก้อย
DYEAR=2000
DGENRE=Country
TTITLE0=แต่ปางก่อน
TTITLE1=พ่อแง่แม่งอน 
TTITLE2=มนต์รักดอกคำใต้
TTITLE3=ทุยจ๋า
TTITLE4=ขวัญเรียม
TTITLE5=เธออยุ่ไหน
TTITLE6=นกเขาคูรัก
TTITLE7=วอนรัก
TTITLE8=สักขีแม่ปิง
TTITLE9=จูบเย้ยจันทร์
TTITLE10=รักใต้ร่มไทร
TTITLE11=รัก
TTITLE12=หวานรัก
TTITLE13=สัญญารัก
TTITLE14=บทเรียนก่อนวิวาห์
TTITLE15=แต่ปางก่อน (ซาวด์ดนตรี)
EXTD=
EXTT0=
EXTT1=
EXTT2=
EXTT3=
EXTT4=
EXTT5=
EXTT6=
EXTT7=
EXTT8=
EXTT9=
EXTT10=
EXTT11=
EXTT12=
EXTT13=
EXTT14=
EXTT15=
PLAYORDER=
